<svg xmlns="http://www.w3.org/2000/svg" viewBox="0 0 248.38 73.51"><defs><style>.cls-1{fill:#fed6d2;}.cls-2{fill:#ed4c41;}.cls-3{fill:#6d1413;}.cls-4{fill:#3c0a14;}</style></defs><g id="Layer_2" data-name="Layer 2"><g id="Layer_2-2" data-name="Layer 2"><circle class="cls-1" cx="36.75" cy="36.75" r="36.75"/><rect class="cls-2" x="11.03" y="11.03" width="51.46" height="51.46"/><polygon class="cls-3" points="36.8 53.91 52.01 27.57 21.59 27.57 36.8 53.91"/><path class="cls-4" d="M93.62,31.42A10.93,10.93,0,0,1,97.89,27a12.44,12.44,0,0,1,6.27-1.57,12.07,12.07,0,0,1,7.52,2.27,11.11,11.11,0,0,1,4,6.38H109a4.83,4.83,0,0,0-1.79-2.49,5.62,5.62,0,0,0-7.3,1,8.48,8.48,0,0,0-1.54,5.45,8.41,8.41,0,0,0,1.54,5.4,5.1,5.1,0,0,0,4.19,1.92A4.7,4.7,0,0,0,109,42h6.66a11.31,11.31,0,0,1-4,6.3,11.78,11.78,0,0,1-7.49,2.34,12.44,12.44,0,0,1-6.27-1.56,11,11,0,0,1-4.27-4.42,13.64,13.64,0,0,1-1.55-6.63A13.71,13.71,0,0,1,93.62,31.42Z"/><path class="cls-4" d="M120.1,31.4a10.87,10.87,0,0,1,4-4.41,10.68,10.68,0,0,1,5.67-1.55,9.94,9.94,0,0,1,4.79,1.11,9.73,9.73,0,0,1,3.28,2.77V25.84h6.22V50.27h-6.22V46.7a9.17,9.17,0,0,1-3.28,2.85,10.07,10.07,0,0,1-4.83,1.12,10.39,10.39,0,0,1-5.63-1.59,11.17,11.17,0,0,1-4-4.47A14.46,14.46,0,0,1,118.62,38,14.19,14.19,0,0,1,120.1,31.4ZM137,34.2a6.16,6.16,0,0,0-2.38-2.47,6.3,6.3,0,0,0-8.76,2.42,7.73,7.73,0,0,0-.9,3.82,8,8,0,0,0,.9,3.86,6.49,6.49,0,0,0,2.39,2.53,6,6,0,0,0,3.15.89,6.39,6.39,0,0,0,3.22-.86A6.29,6.29,0,0,0,137,41.92a7.92,7.92,0,0,0,.88-3.86A7.89,7.89,0,0,0,137,34.2Z"/><path class="cls-4" d="M150,31.4A10.89,10.89,0,0,1,154,27a10.67,10.67,0,0,1,5.66-1.55,9.91,9.91,0,0,1,4.79,1.11,9.77,9.77,0,0,1,3.29,2.77V25.84H174V50.27h-6.21V46.7a9.21,9.21,0,0,1-3.29,2.85,10.07,10.07,0,0,1-4.83,1.12A10.36,10.36,0,0,1,154,49.08a11.2,11.2,0,0,1-4-4.47A14.46,14.46,0,0,1,148.53,38,14.19,14.19,0,0,1,150,31.4Zm16.87,2.8a6.1,6.1,0,0,0-2.38-2.47,6.3,6.3,0,0,0-8.75,2.42,7.63,7.63,0,0,0-.91,3.82,7.84,7.84,0,0,0,.91,3.86,6.4,6.4,0,0,0,2.38,2.53,6,6,0,0,0,3.15.89,6.39,6.39,0,0,0,3.22-.86,6.22,6.22,0,0,0,2.38-2.47,7.92,7.92,0,0,0,.89-3.86A7.89,7.89,0,0,0,166.87,34.2Z"/><path class="cls-4" d="M189.3,26.59a8.6,8.6,0,0,1,4.39-1.1V32h-1.63a6.26,6.26,0,0,0-4.39,1.37q-1.48,1.36-1.48,4.76V50.27H180V25.84h6.17v3.79A8.7,8.7,0,0,1,189.3,26.59Z"/><path class="cls-4" d="M221.21,25.84l-15.13,36h-6.57l5.29-12.17L195,25.84h6.93l6.3,17.07,6.4-17.07Z"/><path class="cls-4" d="M224.41,31.4a10.8,10.8,0,0,1,4-4.41,10.68,10.68,0,0,1,5.67-1.55,9.87,9.87,0,0,1,4.78,1.11,9.67,9.67,0,0,1,3.29,2.77V25.84h6.22V50.27h-6.22V46.7a9.12,9.12,0,0,1-3.29,2.85A10,10,0,0,1,234,50.67a10.38,10.38,0,0,1-5.62-1.59,11.1,11.1,0,0,1-4-4.47A14.33,14.33,0,0,1,222.93,38,14.07,14.07,0,0,1,224.41,31.4Zm16.87,2.8a6.23,6.23,0,0,0-2.38-2.47,6.32,6.32,0,0,0-3.22-.86,6.22,6.22,0,0,0-5.54,3.28,7.73,7.73,0,0,0-.9,3.82,8,8,0,0,0,.9,3.86,6.47,6.47,0,0,0,2.38,2.53,6.07,6.07,0,0,0,3.16.89,6.31,6.31,0,0,0,5.6-3.33,7.92,7.92,0,0,0,.88-3.86A7.89,7.89,0,0,0,241.28,34.2Z"/></g></g></svg>